<svg width="512" height="512" viewBox="0 0 512 512" fill="none" xmlns="http://www.w3.org/2000/svg">
<rect width="512" height="512" fill="white"/>
<path d="M356.786 432.508C358.573 432.508 360.317 432.447 362.02 432.326C363.722 432.206 365.268 432.049 366.667 431.857C368.061 431.664 369.286 431.484 370.351 431.315C371.407 431.146 372.218 430.989 372.78 430.845V407.279C372.78 405.305 372.501 403.475 371.939 401.787C371.381 400.101 370.486 398.642 369.265 397.414C368.031 396.183 366.426 395.219 364.449 394.521C362.468 393.823 360.051 393.473 357.208 393.473C354.416 393.473 352.029 393.643 350.047 393.979C348.066 394.317 346.6 394.677 345.654 395.062L346.406 399.183C347.132 398.942 348.277 398.631 349.836 398.244C351.403 397.859 353.773 397.666 356.955 397.666C359.185 397.666 360.985 397.966 362.354 398.569C363.722 399.173 364.783 399.968 365.539 400.956C366.287 401.943 366.777 403.05 367.001 404.281C367.191 405.331 367.284 406.414 367.313 407.519H367.334V408.025C367.334 408.043 367.338 408.058 367.338 408.076V410.389H367.334V414.509H367.338V427.664C366.219 427.858 364.867 428.015 363.274 428.135C361.686 428.256 359.827 428.315 357.707 428.315C355.979 428.315 354.428 428.182 353.06 427.916C351.695 427.653 350.521 427.232 349.545 426.653C348.569 426.075 347.813 425.305 347.285 424.338C346.752 423.374 346.49 422.197 346.49 420.797C346.49 419.206 346.879 417.931 347.661 416.966C348.442 416.003 349.448 415.243 350.677 414.689C351.902 414.135 353.241 413.775 354.694 413.604C356.148 413.437 357.542 413.353 358.881 413.353C359.933 413.353 360.871 413.383 361.72 413.437V409.436C361.648 409.431 361.585 409.419 361.517 409.413C360.651 409.339 359.827 409.303 359.046 409.303C356.426 409.303 353.997 409.521 351.763 409.955C349.532 410.389 347.606 411.076 345.988 412.014C344.37 412.955 343.111 414.146 342.219 415.593C341.328 417.038 340.88 418.772 340.88 420.797C340.88 422.919 341.286 424.713 342.093 426.181C342.899 427.653 344.019 428.857 345.443 429.798C346.866 430.736 348.539 431.423 350.466 431.857C352.392 432.29 354.5 432.508 356.786 432.508ZM218.557 432.508C220.34 432.508 222.085 432.447 223.788 432.326C225.49 432.206 227.041 432.049 228.435 431.857C229.829 431.664 231.058 431.484 232.119 431.315C233.179 431.146 233.99 430.989 234.548 430.845V407.279C234.548 405.305 234.269 403.475 233.712 401.787C233.154 400.101 232.258 398.642 231.033 397.414C229.804 396.183 228.198 395.219 226.217 394.521C224.235 393.823 221.823 393.473 218.976 393.473C216.183 393.473 213.796 393.643 211.816 393.979C209.834 394.317 208.37 394.677 207.421 395.062L208.174 399.183C208.898 398.942 210.044 398.631 211.608 398.244C213.169 397.859 215.541 397.666 218.722 397.666C220.957 397.666 222.753 397.966 224.126 398.569C225.49 399.173 226.551 399.968 227.307 400.956C228.059 401.943 228.545 403.05 228.773 404.281C228.963 405.331 229.052 406.414 229.081 407.519H229.107V427.664C227.987 427.858 226.639 428.015 225.047 428.135C223.454 428.256 221.599 428.315 219.478 428.315C217.746 428.315 216.196 428.182 214.831 427.916C213.462 427.653 212.289 427.232 211.313 426.653C210.336 426.075 209.583 425.305 209.053 424.338C208.524 423.374 208.259 422.197 208.259 420.797C208.259 419.206 208.649 417.931 209.431 416.966C210.21 416.003 211.215 415.243 212.445 414.689C213.674 414.135 215.013 413.775 216.462 413.604C217.915 413.437 219.309 413.353 220.649 413.353C221.701 413.353 222.634 413.383 223.488 413.437V409.436C223.416 409.431 223.357 409.419 223.285 409.413C222.419 409.339 221.599 409.303 220.818 409.303C218.194 409.303 215.765 409.521 213.534 409.955C211.301 410.389 209.375 411.076 207.756 412.014C206.136 412.955 204.88 414.146 203.987 415.593C203.094 417.038 202.649 418.772 202.649 420.797C202.649 422.919 203.055 424.713 203.861 426.181C204.672 427.653 205.788 428.857 207.21 429.798C208.634 430.736 210.311 431.423 212.233 431.857C214.159 432.29 216.268 432.508 218.557 432.508ZM152.101 432.508C153.884 432.508 155.629 432.447 157.332 432.326C159.034 432.206 160.583 432.049 161.98 431.857C163.372 431.664 164.604 431.484 165.663 431.315C166.723 431.146 167.533 430.989 168.091 430.845V407.279C168.091 405.305 167.812 403.475 167.256 401.787C166.696 400.101 165.802 398.642 164.576 397.414C163.348 396.183 161.742 395.219 159.76 394.521C157.778 393.823 155.365 393.473 152.518 393.473C149.726 393.473 147.341 393.643 145.359 393.979C143.376 394.317 141.913 394.677 140.964 395.062L141.718 399.183C142.442 398.942 143.586 398.631 145.151 398.244C146.712 397.859 149.085 397.666 152.267 397.666C154.499 397.666 156.299 397.966 157.667 398.569C159.034 399.173 160.097 399.968 160.849 400.956C161.603 401.943 162.09 403.05 162.315 404.281C162.504 405.331 162.595 406.414 162.627 407.519H162.648L162.649 408.05L162.65 408.076V410.389H162.648V414.509H162.65V427.664C161.532 427.858 160.181 428.015 158.588 428.135C156.999 428.256 155.142 428.315 153.021 428.315C151.29 428.315 149.74 428.182 148.374 427.916C147.006 427.653 145.832 427.232 144.857 426.653C143.88 426.075 143.126 425.305 142.598 424.338C142.066 423.374 141.802 422.197 141.802 420.797C141.802 419.206 142.192 417.931 142.974 416.966C143.753 416.003 144.758 415.243 145.987 414.689C147.215 414.135 148.554 413.775 150.006 413.604C151.457 413.437 152.855 413.353 154.193 413.353C155.243 413.353 156.178 413.383 157.03 413.437V409.436C156.961 409.431 156.9 409.419 156.83 409.413C155.964 409.339 155.142 409.303 154.36 409.303C151.735 409.303 149.308 409.521 147.077 409.955C144.844 410.389 142.918 411.076 141.299 412.014C139.678 412.955 138.422 414.146 137.529 415.593C136.638 417.038 136.191 418.772 136.191 420.797C136.191 422.919 136.597 424.713 137.404 426.181C138.214 427.653 139.33 428.857 140.752 429.798C142.178 430.736 143.853 431.423 145.78 431.857C147.705 432.29 149.81 432.508 152.101 432.508ZM388.885 445.52V429.804C389.841 430.439 391.37 431.109 393.473 431.816C395.58 432.52 398.066 432.875 400.925 432.875C404.069 432.875 406.86 432.388 409.303 431.413C411.746 430.439 413.806 429.087 415.493 427.355C417.175 425.626 418.454 423.556 419.321 421.142C420.192 418.729 420.629 416.086 420.629 413.211C420.629 410.141 420.107 407.389 419.07 404.951C418.029 402.515 416.572 400.444 414.694 398.737C412.812 397.032 410.565 395.73 407.956 394.826C405.348 393.925 402.442 393.473 399.243 393.473C395.368 393.473 392.169 393.693 389.645 394.132C387.118 394.57 385.04 395.034 383.413 395.521V445.52H388.885ZM181.699 432.508V398.955C182.163 398.758 183.131 398.511 184.604 398.214C186.077 397.919 188.027 397.769 190.457 397.769C192.767 397.769 194.63 397.882 196.048 398.103C197.463 398.327 198.401 398.535 198.864 398.731L199.99 394.584C199.354 394.338 198.215 394.092 196.567 393.844C194.92 393.597 193.172 393.473 191.321 393.473C187.682 393.473 184.589 393.758 182.045 394.326C179.502 394.893 177.508 395.451 176.066 395.993V432.508H181.699ZM96.4736 445.52V429.804C97.4262 430.439 98.9566 431.109 101.061 431.816C103.167 432.52 105.65 432.875 108.513 432.875C111.656 432.875 114.449 432.388 116.891 431.413C119.334 430.439 121.397 429.087 123.079 427.355C124.764 425.626 126.04 423.556 126.91 421.142C127.782 418.729 128.216 416.086 128.216 413.211C128.216 410.141 127.697 407.389 126.659 404.951C125.619 402.515 124.16 400.444 122.281 398.737C120.399 397.032 118.155 395.73 115.545 394.826C112.932 393.925 110.03 393.473 106.83 393.473C102.956 393.473 99.7566 393.693 97.2303 394.132C94.7045 394.57 92.6281 395.034 91 395.521V445.52H96.4736ZM255.297 432.508C260.393 432.508 264.413 431.627 267.355 429.864C270.293 428.101 271.764 425.507 271.764 422.078C271.764 420.268 271.4 418.763 270.675 417.561C269.941 416.361 268.992 415.335 267.817 414.478C266.639 413.62 265.278 412.886 263.743 412.277C262.2 411.669 260.588 411.072 258.91 410.487C257.286 409.901 255.844 409.367 254.581 408.877C253.322 408.391 252.257 407.865 251.388 407.302C250.519 406.736 249.862 406.087 249.417 405.35C248.963 404.614 248.743 403.731 248.743 402.699C248.743 402.642 248.749 395.853 248.754 393.958L248.755 393.473H243.231C243.22 393.663 243.201 401.311 243.198 402.862L243.197 403.13C243.197 404.745 243.532 406.117 244.206 407.242C244.88 408.37 245.771 409.337 246.894 410.144C248.013 410.952 249.302 411.661 250.757 412.273C252.215 412.886 253.754 413.486 255.382 414.073C257.396 414.807 259.092 415.444 260.466 415.983C261.835 416.52 262.941 417.085 263.781 417.672C264.625 418.26 265.222 418.92 265.591 419.655C265.952 420.389 266.134 421.272 266.134 422.299C266.134 424.453 265.112 425.983 263.069 426.889C261.025 427.796 258.435 428.248 255.297 428.248C253.559 428.248 252.033 428.151 250.718 427.954C249.4 427.76 248.268 427.525 247.314 427.257C246.36 426.989 245.605 426.741 245.046 426.523C244.486 426.301 244.121 426.143 243.952 426.045L242.523 430.377C243.197 430.673 244.541 431.101 246.559 431.662C248.573 432.227 251.486 432.508 255.297 432.508ZM294.925 432.508C295.793 430.872 296.711 429.034 297.676 426.989C298.638 424.946 299.635 422.763 300.653 420.439C301.676 418.113 302.669 415.669 303.621 413.104C304.583 410.542 305.495 407.919 306.364 405.236C307.237 407.913 308.155 410.529 309.116 413.088C310.077 415.645 311.07 418.086 312.097 420.408C313.125 422.732 314.121 424.914 315.091 426.956C316.057 428.997 316.988 430.848 317.87 432.508H323.135C326.116 427.203 328.855 421.595 331.338 415.68C333.825 409.767 336.118 403.231 338.222 396.075H332.621C331.982 398.57 331.179 401.263 330.213 404.156C329.252 407.049 328.211 409.917 327.104 412.756C325.989 415.596 324.882 418.294 323.77 420.851C322.659 423.41 321.605 425.579 320.613 427.363C319.44 425.013 318.284 422.499 317.151 419.819C316.009 417.14 314.933 414.427 313.918 411.681C312.904 408.932 311.974 406.232 311.131 403.579C310.289 400.924 309.61 398.425 309.089 396.075H304.194C303.502 398.421 302.721 400.921 301.853 403.577C300.98 406.234 300.053 408.924 299.07 411.649C298.087 414.376 297.033 417.08 295.912 419.761C294.792 422.445 293.672 424.954 292.556 427.291C291.564 425.507 290.497 423.344 289.359 420.804C288.217 418.266 287.093 415.577 285.981 412.735C284.87 409.895 283.829 407.031 282.868 404.141C281.902 401.255 281.095 398.567 280.451 396.075H274.423C276.513 403.218 278.793 409.751 281.271 415.671C283.745 421.589 286.475 427.202 289.465 432.508H294.925ZM400.553 429.906C399.229 429.906 397.966 429.793 396.76 429.572C395.549 429.351 394.426 429.065 393.389 428.718C392.353 428.374 391.447 428.004 390.672 427.607C389.897 427.212 389.248 426.84 388.73 426.494V399.717C389.592 399.469 390.877 399.234 392.571 399.01C394.269 398.789 396.499 398.677 399.26 398.677C404.094 398.677 407.974 400.026 410.91 402.721C413.849 405.416 415.313 409.285 415.313 414.329C415.313 416.455 415.056 418.472 414.537 420.374C414.019 422.279 413.183 423.933 412.033 425.344C410.883 426.753 409.372 427.866 407.504 428.681C405.631 429.497 403.319 429.906 400.553 429.906ZM108.14 429.906C106.815 429.906 105.551 429.793 104.343 429.572C103.134 429.351 102.012 429.065 100.976 428.718C99.94 428.374 99.0333 428.004 98.2577 427.607C97.482 427.212 96.834 426.84 96.3166 426.494V399.717C97.1776 399.469 98.4602 399.234 100.156 399.01C101.854 398.789 104.084 398.677 106.844 398.677C111.679 398.677 115.563 400.026 118.495 402.721C121.431 405.416 122.9 409.285 122.9 414.329C122.9 416.455 122.641 418.472 122.122 420.374C121.605 422.279 120.77 423.933 119.62 425.344C118.467 426.753 116.958 427.866 115.088 428.681C113.216 429.497 110.901 429.906 108.14 429.906Z" fill="#2669F5"/>
<path d="M421 330.585L268.378 67.0001L115.75 330.585L421 330.585ZM161.124 190.555L231.25 67.0001H91L161.124 190.555ZM358.669 295.695L178.086 295.695L268.378 139.754L358.669 295.695Z" fill="#2669F5"/>
</svg>
